HIERARCHY
ROOT Hips
{
    OFFSET 0.0 0.0 0.0
    CHANNELS 6 Xposition Yposition Zposition Zrotation Xrotation Yrotation
    JOINT LeftHipJoint
    {
        OFFSET 0.1 0.0 0.0
        CHANNELS 3 Zrotation Xrotation Yrotation
        JOINT LeftUpLeg
        {
            OFFSET 126.79948275513753 0.0 0.0
            CHANNELS 3 Zrotation Xrotation Yrotation
            JOINT LeftLeg
            {
                OFFSET 0.0 0.0 -437.186279481174
                CHANNELS 3 Zrotation Xrotation Yrotation
                JOINT LeftFoot
                {
                    OFFSET 0.0 0.0 -392.1883233961987
                    CHANNELS 3 Zrotation Xrotation Yrotation
                    End Site
                    {
                        OFFSET 0.0 -0.1 0.0
                    }
                }
            }
        }
    }
    JOINT LowerBack
    {
        OFFSET 0.0 0.0 0.1
        CHANNELS 3 Zrotation Xrotation Yrotation
        JOINT Spine
        {
            OFFSET 0.0 0.0 220.59739444828023
            CHANNELS 3 Zrotation Xrotation Yrotation
            JOINT Spine1
            {
                OFFSET 0.0 0.0 250.01874920856667
                CHANNELS 3 Zrotation Xrotation Yrotation
                JOINT LeftShoulder
                {
                    OFFSET 0.1 0.0 0.0
                    CHANNELS 3 Zrotation Xrotation Yrotation
                    JOINT LeftArm
                    {
                        OFFSET 137.6962004174295 0.0 0.0
                        CHANNELS 3 Zrotation Xrotation Yrotation
                        JOINT LeftForeArm
                        {
                            OFFSET 267.3885385859164 0.0 0.0
                            CHANNELS 3 Zrotation Xrotation Yrotation
                            JOINT LeftHand
                            {
                                OFFSET 248.85039161839282 0.0 0.0
                                CHANNELS 3 Zrotation Xrotation Yrotation
                                End Site
                                {
                                    OFFSET 0.1 0.0 0.0
                                }
                            }
                        }
                    }
                }
                JOINT Neck
                {
                    OFFSET 0.0 0.0 0.1
                    CHANNELS 3 Zrotation Xrotation Yrotation
                    JOINT Neck1
                    {
                        OFFSET 0.0 0.0 101.1417446950326
                        CHANNELS 3 Zrotation Xrotation Yrotation
                        End Site
                        {
                            OFFSET 0.0 0.0 112.67501312846444
                        }
                    }
                }
                JOINT RightShoulder
                {
                    OFFSET -0.1 0.0 0.0
                    CHANNELS 3 Zrotation Xrotation Yrotation
                    JOINT RightArm
                    {
                        OFFSET -137.6962004174295 0.0 0.0
                        CHANNELS 3 Zrotation Xrotation Yrotation
                        JOINT RightForeArm
                        {
                            OFFSET -267.3885385859164 0.0 0.0
                            CHANNELS 3 Zrotation Xrotation Yrotation
                            JOINT RightHand
                            {
                                OFFSET -248.85039161839282 0.0 0.0
                                CHANNELS 3 Zrotation Xrotation Yrotation
                                End Site
                                {
                                    OFFSET -0.1 0.0 0.0
                                }
                            }
                        }
                    }
                }
            }
        }
    }
    JOINT RightHipJoint
    {
        OFFSET -0.1 0.0 0.0
        CHANNELS 3 Zrotation Xrotation Yrotation
        JOINT RightUpLeg
        {
            OFFSET -126.79948275513753 0.0 0.0
            CHANNELS 3 Zrotation Xrotation Yrotation
            JOINT RightLeg
            {
                OFFSET 0.0 0.0 -437.186279481174
                CHANNELS 3 Zrotation Xrotation Yrotation
                JOINT RightFoot
                {
                    OFFSET 0.0 0.0 -392.1883233961987
                    CHANNELS 3 Zrotation Xrotation Yrotation
                    End Site
                    {
                        OFFSET 0.0 -0.1 0.0
                    }
                }
            }
        }
    }
}
MOTION
Frames: 11
Frame Time: 0.03333333333333333
0.0 0.0 833.3158650864071 24.82115684069125 1.785006472151856 3.69298342724465 0.0 0.0 1.4908850069360235e-16 -1.0458699828559954 -13.445011614524896 -3.5440590145405517 0.3854467931945087 22.142111512817895 1.6583192912946763 0.0 0.0 3.975693351829396e-16 0.0 0.0 1.4908850069360235e-16 0.7068438926029189 9.171387906073656 0.4776200441115837 -2.2510842834663722 1.7809073019488715e-15 4.3263544442005465e-16 0.0 0.0 3.975693351829396e-16 -20.96271669630752 -33.66058465295845 49.08018538690336 -143.0592335290799 -2.0152911479461472e-15 -6.033433012483678e-15 0.0 0.0 0.0 0.0 0.0 3.975693351829396e-16 8.28556679159697 -9.994652305972425 2.6503534554951256 0.0 0.0 3.975693351829396e-16 23.86563207488619 1.693244993331653 -65.93046534310028 119.86969607717845 -3.186816863369014e-15 5.5052620833585085e-15 0.0 0.0 -3.1805546814635168e-15 0.0 0.0 1.4908850069360235e-16 -0.7670454444523618 -9.928699064195783 -4.996311927287655 -0.2771802474828707 26.384888950559326 0.48348746679029886 0.0 0.0 0.0
0.0 0.0 833.3158650864071 24.77309487779315 1.9462706616327365 3.6384548012583355 3.1805546814635164e-15 -9.93923337957349e-17 -1.9878466759146977e-16 -1.0466290168997523 -13.674494947280154 -3.584705188562487 0.3444661218006736 22.380661907486378 1.7194356595419291 0.0 0.0 0.0 3.1805546814635164e-15 -9.93923337957349e-17 -1.9878466759146977e-16 0.6918936188043341 9.129617905962329 0.4785501493702645 -2.2776333384884886 1.184570810316136e-15 4.2119562928052554e-16 0.0 0.0 0.0 -20.79464297942588 -33.52926703281304 49.10527189067374 -143.0251218919742 -4.034174184232731e-15 -1.2065665665836345e-14 0.0 1.5902773407317582e-15 0.0 0.0 0.0 0.0 8.33447616746007 -10.308194769486299 2.6096365254831615 0.0 0.0 0.0 23.881907206875017 1.6127546384599347 -65.96525441133372 119.92246777724475 0.0 0.0 1.7655625192200634e-31 -6.3611093629270335e-15 3.1805546814635168e-15 3.1805546814635164e-15 -9.93923337957349e-17 -1.9878466759146977e-16 -0.7713816530074207 -10.147213285878566 -4.965663669170552 -0.2973019386943375 26.417167037498597 0.4402178858497879 0.0 0.0 -7.951386703658792e-16
0.0 0.0 833.3158650864071 24.788326580129052 2.11409017764133 3.693381257734883 -7.758819664541295e-34 -2.9817700138720465e-16 -2.9817700138720465e-16 -1.0861180380592863 -14.029345181412092 -3.757702546990957 0.299590007618121 22.70577093902497 1.7756886206117366 -1.2414111463266072e-32 1.7890620083232284e-15 7.951386703658792e-16 -7.758819664541295e-34 -2.9817700138720465e-16 -2.9817700138720465e-16 0.6951192601356971 9.0789984073082 0.41482053607851155 -2.303636020526797 -6.282007227986343e-16 1.5779683041636822e-15 0.0 0.0 0.0 -20.91363031884806 -33.43915384096873 48.925616574689606 -142.94043166852663 -1.988250081695852e-15 1.4084226043635708e-14 0.0 0.0 0.0 0.0 0.0 0.0 8.13474963436333 -10.468699631576504 2.544015360080057 0.0 0.0 0.0 23.79250289909038 1.3209113664870535 -66.01292396926856 119.95103811251215 -1.652256850907913e-14 -9.548724564403804e-15 0.0 0.0 -3.1805546814635164e-15 -7.758819664541295e-34 -2.9817700138720465e-16 -2.9817700138720465e-16 -0.8080600168833021 -10.513682286525155 -5.097023098134461 -0.34071550889870594 26.626564075057445 0.4934455143258274 0.0 0.0 7.95138670365879e-16
0.0 0.0 833.3158650864071 24.745062015864864 2.3295697137028237 3.6953126673139187 0.0 0.0 -1.987846675914698e-16 -1.1211296144006133 -14.407810364390118 -3.801897026830597 0.29347422462893963 22.833383594978002 1.6707304906910463 0.0 0.0 -3.975693351829397e-16 0.0 0.0 -1.987846675914698e-16 0.7004071373151994 9.111366620276238 0.38731263771644286 -2.3691061803707854 -2.1861640455307725e-15 -4.520396478311724e-17 0.0 0.0 0.0 -20.757923735280116 -33.324447726827024 48.838897449919855 -142.93929882311218 -8.052925250048876e-15 -4.009715647195092e-15 0.0 0.0 0.0 0.0 0.0 0.0 7.809517921241965 -10.734700267254835 2.3582785313639376 0.0 0.0 0.0 23.80072412103667 1.0619922789705565 -66.02654141408374 119.96551331364122 -4.2825002405279844e-16 7.099031083591354e-15 0.0 -6.3611093629270335e-15 0.0 0.0 0.0 -1.987846675914698e-16 -0.836447913255075 -10.832706413057789 -5.191962003380985 -0.3763387023660191 26.572394512512744 0.6145865839533636 0.0 0.0 0.0
0.0 0.0 833.3158650864071 24.67984745024148 2.395626618373157 3.7133642235077153 0.0 0.0 -4.969616689786745e-17 -1.1342024935624775 -14.540794537748983 -3.9010494293276836 0.2625408036566552 23.291318446909735 1.6319797915720495 0.0 0.0 -3.975693351829396e-16 0.0 0.0 -4.969616689786745e-17 0.7011625698261426 9.102437912553068 0.3933637184764257 -2.4006790459869607 -5.795662997737979e-16 -8.074568136456507e-16 0.0 0.0 0.0 -20.37451430621402 -33.206540957311304 48.9233656335829 -142.87800756921928 0.0 -0.0 0.0 0.0 0.0 0.0 0.0 0.0 7.784333940406032 -10.893452513678563 2.1702686926914656 0.0 0.0 0.0 23.591364920342773 1.0783697167694577 -66.17515663168328 120.04348557931657 1.102017775028296e-14 6.356927847682421e-15 0.0 0.0 0.0 0.0 0.0 -4.969616689786745e-17 -0.8452477873094332 -10.920715873639947 -5.224406831191666 -0.3881552191023933 26.62196677471428 0.5171132356787069 0.0 0.0 0.0
0.0 0.0 833.3158650864071 24.709132877055847 2.394560576860455 3.7563837030701643 3.1805546814635168e-15 -1.3793457181406746e-33 -4.969616689786745e-17 -1.15897818882911 -14.671725427217206 -4.05034888256222 0.2272675746996836 23.650112060531498 1.6561743716633628 0.0 0.0 0.0 3.1805546814635168e-15 -1.3793457181406746e-33 -4.969616689786745e-17 0.7074300232402823 9.071942892034034 0.3784230767416403 -2.424214358225069 3.006332967824868e-15 -1.1293657019301019e-15 0.0 0.0 7.951386703658792e-16 -20.20896645653293 -32.94744546753043 48.96906166629155 -142.8371919663234 -1.0391980662195487e-15 -1.3072522509807239e-14 0.0 0.0 0.0 0.0 0.0 7.951386703658792e-16 7.657227245706879 -10.916919467645226 1.973849508203151 0.0 0.0 7.951386703658792e-16 23.424611474842756 1.0601142144758433 -66.3073126136504 120.08387232923482 1.0180582768767335e-14 2.0551982744757536e-14 0.0 0.0 3.1805546814635168e-15 3.1805546814635168e-15 -1.3793457181406746e-33 -4.969616689786745e-17 -0.8498441398042589 -10.846405889931532 -5.303886007668458 -0.4011005330573497 26.625410647100647 0.49009346027905704 0.0 0.0 7.951386703658792e-16
0.0 0.0 833.3158650864071 24.7266862953582 2.3388258043387364 3.78161081855309 -1.7241821476758432e-34 -1.987846675914698e-16 -9.93923337957349e-17 -1.1542002863948317 -14.627825781060082 -4.152896685457664 0.18445620918286176 24.151387976254238 1.7662890619623497 -1.1724438604195735e-32 -1.6896696745274934e-15 -7.951386703658792e-16 -1.7241821476758432e-34 -1.987846675914698e-16 -9.93923337957349e-17 0.7040826368745782 9.037777693734862 0.36862528339861533 -2.3920660823289586 -1.904428149255948e-16 -4.0163198900295694e-16 0.0 0.0 0.0 -20.172676943216064 -32.57588685925115 49.07236168780358 -142.80000474326383 1.9709889923468256e-15 -1.4086651980780866e-14 3.1805546814635168e-15 0.0 0.0 0.0 0.0 0.0 7.6046792728079105 -10.750244647490167 1.8117355060921772 0.0 0.0 0.0 23.357018579796897 1.0912696167795413 -66.3334269432461 120.09636164126165 5.931698526096105e-15 -3.923594398559405e-15 0.0 0.0 3.1805546814635168e-15 -1.7241821476758432e-34 -1.987846675914698e-16 -9.93923337957349e-17 -0.8358962194793913 -10.680532746524015 -5.307477895168246 -0.4055634788303144 26.590296087714645 0.37338232836395924 0.0 0.0 -7.951386703658792e-16
0.0 0.0 833.3158650864071 24.6927738983994 2.1947042783386954 3.825946883632874 0.0 0.0 -9.93923337957349e-17 -1.1677192250598851 -14.69016478021488 -4.314136454015687 0.13089317484532362 24.73156596866223 1.9056398388607605 3.1805546814635168e-15 -9.939233379573492e-17 -7.951386703658792e-16 0.0 0.0 -9.93923337957349e-17 0.7021062377822278 8.949480619643836 0.30985760558106035 -2.359906177412907 -2.069295058052869e-16 3.933915352094342e-16 0.0 1.987846675914698e-16 0.0 -19.88112041026253 -32.36345177021087 49.32057038741903 -142.9136364307452 -1.1069256793284255e-14 -2.996434398992207e-15 0.0 0.0 0.0 0.0 1.987846675914698e-16 0.0 7.658655377387795 -10.460229994373295 1.8298836844953952 0.0 1.987846675914698e-16 0.0 23.28513948030755 1.3411989405870492 -66.4507713332839 120.20122283488504 -6.34175236535547e-15 1.1028917727727422e-14 0.0 0.0 -3.1805546814635168e-15 0.0 0.0 -9.93923337957349e-17 -0.8294640968867627 -10.526412787236552 -5.414919492871562 -0.4458242401261726 26.66522282610363 0.5129831513147123 0.0 0.0 0.0
0.0 0.0 833.3158650864071 24.603489936165257 2.2230524174841584 3.769788602696228 0.0 0.0 3.4787316828507215e-16 -1.1590524755858322 -14.885376518724605 -4.29148647796599 0.10203359755492793 25.41295825058369 2.067683401741854 0.0 0.0 3.975693351829396e-16 0.0 0.0 3.4787316828507215e-16 0.677581514934091 8.823968557370867 0.28889813398557623 -2.283537933737943 2.1307425652767568e-15 2.8260042799921305e-15 0.0 0.0 3.975693351829396e-16 -19.763267765665333 -32.21686642226551 49.4264171521056 -142.98706075759873 2.0190907624476367e-15 6.032162532634262e-15 -8.827812596100317e-32 1.5902773407317584e-15 6.3611093629270335e-15 0.0 0.0 3.975693351829396e-16 7.669821968375247 -10.377627050798516 1.8911978261110975 0.0 0.0 3.975693351829396e-16 23.378718704263584 1.4832526666292027 -66.38457062428668 120.24344717756095 4.1103057468836187e-16 -7.100048892477348e-15 0.0 0.0 0.0 0.0 0.0 3.4787316828507215e-16 -0.8088356154193447 -10.484571904581362 -5.378724190416326 -0.4763936473899012 26.7105291164391 0.5377101320175541 2.2069531490250793e-32 -3.1805546814635164e-15 7.951386703658791e-16
0.0 0.0 833.3158650864071 24.57271128259349 2.1336152425581782 3.757874205585584 0.0 0.0 -4.969616689786745e-17 -1.1430462837921165 -14.792882278517117 -4.327088689504821 0.06945500679352837 25.721129125142305 2.177071996659015 0.0 0.0 0.0 0.0 0.0 -4.969616689786745e-17 0.6643493190572732 8.717450631111651 0.2593058876450669 -2.2245523655331834 -1.6054126575413857e-15 7.641189204318903e-16 0.0 0.0 3.975693351829396e-16 -19.74626712483656 -32.14499149848609 49.48116608719254 -143.09424229064925 3.023319145778198e-15 1.9108869154625874e-14 0.0 0.0 0.0 0.0 0.0 3.975693351829396e-16 7.686129065616022 -10.115450405503728 1.913739474914656 0.0 0.0 3.975693351829396e-16 23.255521150999133 1.6143033895128933 -66.45007709249748 120.34876584076716 -5.92304186942424e-15 3.9366502793548795e-15 0.0 0.0 0.0 0.0 0.0 -4.969616689786745e-17 -0.7883404295606937 -10.29868309837601 -5.377322995142426 -0.49491790788308565 26.783782273250722 0.4899258818931911 0.0 0.0 0.0
0.0 0.0 833.3158650864071 24.546833991364373 2.149243601800703 3.7043142689651085 3.1805546814635164e-15 -2.9817700138720465e-16 -2.9817700138720465e-16 -1.1254290654475536 -14.8369675498877 -4.16851741705041 0.1077767992350472 25.921521346613005 2.068748196386952 0.0 0.0 -3.975693351829396e-16 3.1805546814635164e-15 -2.9817700138720465e-16 -2.9817700138720465e-16 0.6463904650631529 8.641745471230964 0.26194896388874594 -2.1906663610412296 1.3608386579543426e-15 1.6165865355325102e-15 0.0 0.0 3.975693351829396e-16 -19.745776719436495 -32.20624735234149 49.48056722709847 -143.0316108198964 2.0167454702000894e-15 6.032947043986495e-15 0.0 0.0 0.0 0.0 0.0 3.975693351829396e-16 7.798914836198851 -10.14007066281947 1.9188952093591591 0.0 0.0 3.975693351829396e-16 23.26177767753807 1.8067163559491803 -66.4162094932106 120.33298398345299 -3.1645333815256e-15 5.5181011955498e-15 0.0 0.0 0.0 3.1805546814635164e-15 -2.9817700138720465e-16 -2.9817700138720465e-16 -0.765250410299012 -10.185079099991592 -5.327791588925668 -0.5123792078675972 26.831454764445677 0.5410442764690137 0.0 0.0 7.951386703658792e-16
